<svg xmlns="http://www.w3.org/2000/svg" xmlns:xlink="http://www.w3.org/1999/xlink" width="42" height="42" viewBox="0 0 42 42">
  <defs>
    <clipPath id="clip-path">
      <rect id="Team_photo" data-name="Team photo" width="42" height="42" rx="10" fill="#fafafb" opacity="0.1"/>
    </clipPath>
    <clipPath id="clip-path-2">
      <rect id="Document_Background_Mask_" data-name="Document (Background/Mask)" width="24" height="24" fill="none" stroke="#fafafb" stroke-width="1"/>
    </clipPath>
  </defs>
  <g id="Events" clip-path="url(#clip-path)">
    <g id="Document" transform="translate(9.195 9.5)">
      <g id="Document-2" data-name="Document" clip-path="url(#clip-path-2)">
        <g id="Group_5" data-name="Group 5" transform="translate(4 3)">
          <path id="Rectangle_1" data-name="Rectangle 1" d="M13,0a3,3,0,0,1,3,3V15a3,3,0,0,1-3,3H3a3,3,0,0,1-3-3V3A3,3,0,0,1,3,0Z" fill="none" stroke="#fafafb" stroke-width="1.5" stroke-dasharray="0 0"/>
          <path id="Rectangle_2" data-name="Rectangle 2" d="M2,0A2,2,0,0,1,4,2V4A1,1,0,0,1,3,5H1A1,1,0,0,1,0,4V1A1,1,0,0,1,1,0Z" transform="translate(12)" fill="none" stroke="#fafafb" stroke-width="1.5" stroke-dasharray="0 0"/>
          <path id="Vector_7" data-name="Vector 7" d="M0,0H8" transform="translate(4 8)" fill="none" stroke="#fafafb" stroke-linecap="round" stroke-linejoin="round" stroke-width="1.5" stroke-dasharray="0 0"/>
          <path id="Vector_8" data-name="Vector 8" d="M0,0H8" transform="translate(4 11)" fill="none" stroke="#fafafb" stroke-linecap="round" stroke-linejoin="round" stroke-width="1.5" stroke-dasharray="0 0"/>
        </g>
      </g>
    </g>
  </g>
</svg>
